<svg width="3743" height="1080" viewBox="0 0 3743 1080" fill="none" xmlns="http://www.w3.org/2000/svg">
<path d="M1412.14 328.8V750H1309.54V328.8H1412.14ZM1466.1 582C1466.1 547.6 1472.5 517.4 1485.3 491.4C1498.5 465.4 1516.3 445.4 1538.7 431.4C1561.1 417.4 1586.1 410.4 1613.7 410.4C1637.3 410.4 1657.9 415.2 1675.5 424.8C1693.5 434.4 1707.3 447 1716.9 462.6V415.2H1819.5V750H1716.9V702.6C1706.9 718.2 1692.9 730.8 1674.9 740.4C1657.3 750 1636.7 754.8 1613.1 754.8C1585.9 754.8 1561.1 747.8 1538.7 733.8C1516.3 719.4 1498.5 699.2 1485.3 673.2C1472.5 646.8 1466.1 616.4 1466.1 582ZM1716.9 582.6C1716.9 557 1709.7 536.8 1695.3 522C1681.3 507.2 1664.1 499.8 1643.7 499.8C1623.3 499.8 1605.9 507.2 1591.5 522C1577.5 536.4 1570.5 556.4 1570.5 582C1570.5 607.6 1577.5 628 1591.5 643.2C1605.9 658 1623.3 665.4 1643.7 665.4C1664.1 665.4 1681.3 658 1695.3 643.2C1709.7 628.4 1716.9 608.2 1716.9 582.6ZM2320.92 411.6C2362.52 411.6 2395.52 424.2 2419.92 449.4C2444.72 474.6 2457.12 509.6 2457.12 554.4V750H2355.12V568.2C2355.12 546.6 2349.32 530 2337.72 518.4C2326.52 506.4 2310.92 500.4 2290.92 500.4C2270.92 500.4 2255.12 506.4 2243.52 518.4C2232.32 530 2226.72 546.6 2226.72 568.2V750H2124.72V568.2C2124.72 546.6 2118.92 530 2107.32 518.4C2096.12 506.4 2080.52 500.4 2060.52 500.4C2040.52 500.4 2024.72 506.4 2013.12 518.4C2001.92 530 1996.32 546.6 1996.32 568.2V750H1893.72V415.2H1996.32V457.2C2006.72 443.2 2020.32 432.2 2037.12 424.2C2053.92 415.8 2072.92 411.6 2094.12 411.6C2119.32 411.6 2141.72 417 2161.32 427.8C2181.32 438.6 2196.92 454 2208.12 474C2219.72 455.6 2235.52 440.6 2255.52 429C2275.52 417.4 2297.32 411.6 2320.92 411.6ZM2844.48 577.2C2844.48 586.8 2843.88 596.8 2842.68 607.2H2610.48C2612.08 628 2618.68 644 2630.28 655.2C2642.28 666 2656.88 671.4 2674.08 671.4C2699.68 671.4 2717.48 660.6 2727.48 639H2836.68C2831.08 661 2820.88 680.8 2806.08 698.4C2791.68 716 2773.48 729.8 2751.48 739.8C2729.48 749.8 2704.88 754.8 2677.68 754.8C2644.88 754.8 2615.68 747.8 2590.08 733.8C2564.48 719.8 2544.48 699.8 2530.08 673.8C2515.68 647.8 2508.48 617.4 2508.48 582.6C2508.48 547.8 2515.48 517.4 2529.48 491.4C2543.88 465.4 2563.88 445.4 2589.48 431.4C2615.08 417.4 2644.48 410.4 2677.68 410.4C2710.08 410.4 2738.88 417.2 2764.08 430.8C2789.28 444.4 2808.88 463.8 2822.88 489C2837.28 514.2 2844.48 543.6 2844.48 577.2ZM2739.48 550.2C2739.48 532.6 2733.48 518.6 2721.48 508.2C2709.48 497.8 2694.48 492.6 2676.48 492.6C2659.28 492.6 2644.68 497.6 2632.68 507.6C2621.08 517.6 2613.88 531.8 2611.08 550.2H2739.48ZM3001.21 306V750H2898.61V306H3001.21ZM3211.76 754.8C3182.56 754.8 3156.56 749.8 3133.76 739.8C3110.96 729.8 3092.96 716.2 3079.76 699C3066.56 681.4 3059.16 661.8 3057.56 640.2H3158.96C3160.16 651.8 3165.56 661.2 3175.16 668.4C3184.76 675.6 3196.56 679.2 3210.56 679.2C3223.36 679.2 3233.16 676.8 3239.96 672C3247.16 666.8 3250.76 660.2 3250.76 652.2C3250.76 642.6 3245.76 635.6 3235.76 631.2C3225.76 626.4 3209.56 621.2 3187.16 615.6C3163.16 610 3143.16 604.2 3127.16 598.2C3111.16 591.8 3097.36 582 3085.76 568.8C3074.16 555.2 3068.36 537 3068.36 514.2C3068.36 495 3073.56 477.6 3083.96 462C3094.76 446 3110.36 433.4 3130.76 424.2C3151.56 415 3176.16 410.4 3204.56 410.4C3246.56 410.4 3279.56 420.8 3303.56 441.6C3327.96 462.4 3341.96 490 3345.56 524.4H3250.76C3249.16 512.8 3243.96 503.6 3235.16 496.8C3226.76 490 3215.56 486.6 3201.56 486.6C3189.56 486.6 3180.36 489 3173.96 493.8C3167.56 498.2 3164.36 504.4 3164.36 512.4C3164.36 522 3169.36 529.2 3179.36 534C3189.76 538.8 3205.76 543.6 3227.36 548.4C3252.16 554.8 3272.36 561.2 3287.96 567.6C3303.56 573.6 3317.16 583.6 3328.76 597.6C3340.76 611.2 3346.96 629.6 3347.36 652.8C3347.36 672.4 3341.76 690 3330.56 705.6C3319.76 720.8 3303.96 732.8 3283.16 741.6C3262.76 750.4 3238.96 754.8 3211.76 754.8ZM3725.73 577.2C3725.73 586.8 3725.13 596.8 3723.93 607.2H3491.73C3493.33 628 3499.93 644 3511.53 655.2C3523.53 666 3538.13 671.4 3555.33 671.4C3580.93 671.4 3598.73 660.6 3608.73 639H3717.93C3712.33 661 3702.13 680.8 3687.33 698.4C3672.93 716 3654.73 729.8 3632.73 739.8C3610.73 749.8 3586.13 754.8 3558.93 754.8C3526.13 754.8 3496.93 747.8 3471.33 733.8C3445.73 719.8 3425.73 699.8 3411.33 673.8C3396.93 647.8 3389.73 617.4 3389.73 582.6C3389.73 547.8 3396.73 517.4 3410.73 491.4C3425.13 465.4 3445.13 445.4 3470.73 431.4C3496.33 417.4 3525.73 410.4 3558.93 410.4C3591.33 410.4 3620.13 417.2 3645.33 430.8C3670.53 444.4 3690.13 463.8 3704.13 489C3718.53 514.2 3725.73 543.6 3725.73 577.2ZM3620.73 550.2C3620.73 532.6 3614.73 518.6 3602.73 508.2C3590.73 497.8 3575.73 492.6 3557.73 492.6C3540.53 492.6 3525.93 497.6 3513.93 507.6C3502.33 517.6 3495.13 531.8 3492.33 550.2H3620.73Z" fill="black"/>
<rect width="1080" height="1080" rx="100" fill="#1D4ED8"/>
<path d="M282.55 505.65C266.217 505.65 251.75 502.85 239.15 497.25C226.784 491.65 216.4 484.183 208 474.85C199.834 465.283 193.534 454.667 189.1 443C184.9 431.1 182.8 418.967 182.8 406.6V399.6C182.8 386.767 184.9 374.517 189.1 362.85C193.534 350.95 199.834 340.333 208 331C216.167 321.667 226.317 314.317 238.45 308.95C250.817 303.35 264.817 300.55 280.45 300.55C300.984 300.55 318.25 305.217 332.25 314.55C346.484 323.65 357.334 335.667 364.8 350.6C372.267 365.3 376 381.4 376 398.9V417.8H206.25V385.95H342.05L323.85 400.65C323.85 389.217 322.217 379.417 318.95 371.25C315.684 363.083 310.784 356.9 304.25 352.7C297.95 348.267 290.017 346.05 280.45 346.05C270.65 346.05 262.367 348.267 255.6 352.7C248.834 357.133 243.7 363.667 240.2 372.3C236.7 380.7 234.95 391.083 234.95 403.45C234.95 414.883 236.584 424.917 239.85 433.55C243.117 441.95 248.25 448.483 255.25 453.15C262.25 457.817 271.35 460.15 282.55 460.15C292.817 460.15 301.217 458.167 307.75 454.2C314.284 450.233 318.717 445.333 321.05 439.5H372.5C369.7 452.333 364.217 463.767 356.05 473.8C347.884 483.833 337.617 491.65 325.25 497.25C312.884 502.85 298.65 505.65 282.55 505.65ZM415.559 499V243.5H471.909V499H415.559ZM392.809 284.8V243.5H471.909V284.8H392.809ZM596.309 504.95C569.009 504.95 547.659 499.35 532.259 488.15C516.859 476.95 508.692 461.2 507.759 440.9H557.459C558.392 446.967 562.009 452.45 568.309 457.35C574.842 462.017 584.526 464.35 597.359 464.35C607.159 464.35 615.209 462.717 621.509 459.45C628.042 455.95 631.309 451.05 631.309 444.75C631.309 439.15 628.859 434.717 623.959 431.45C619.059 427.95 610.309 425.5 597.709 424.1L582.659 422.7C559.559 420.367 542.176 413.95 530.509 403.45C519.076 392.95 513.359 379.533 513.359 363.2C513.359 349.667 516.742 338.35 523.509 329.25C530.276 320.15 539.609 313.267 551.509 308.6C563.642 303.933 577.409 301.6 592.809 301.6C617.542 301.6 637.492 307.083 652.659 318.05C667.826 328.783 675.759 344.417 676.459 364.95H626.759C625.826 358.65 622.559 353.4 616.959 349.2C611.359 344.767 603.076 342.55 592.109 342.55C583.476 342.55 576.592 344.183 571.459 347.45C566.326 350.717 563.759 355.15 563.759 360.75C563.759 366.117 565.976 370.2 570.409 373C574.842 375.8 582.076 377.783 592.109 378.95L607.159 380.35C630.726 382.917 649.042 389.45 662.109 399.95C675.176 410.45 681.709 424.567 681.709 442.3C681.709 455.133 678.209 466.333 671.209 475.9C664.209 485.233 654.292 492.467 641.459 497.6C628.626 502.5 613.576 504.95 596.309 504.95ZM805.841 505.65C789.508 505.65 775.041 502.85 762.441 497.25C750.075 491.65 739.691 484.183 731.291 474.85C723.125 465.283 716.825 454.667 712.391 443C708.191 431.1 706.091 418.967 706.091 406.6V399.6C706.091 386.767 708.191 374.517 712.391 362.85C716.825 350.95 723.125 340.333 731.291 331C739.458 321.667 749.608 314.317 761.741 308.95C774.108 303.35 788.108 300.55 803.741 300.55C824.275 300.55 841.541 305.217 855.541 314.55C869.775 323.65 880.625 335.667 888.091 350.6C895.558 365.3 899.291 381.4 899.291 398.9V417.8H729.541V385.95H865.341L847.141 400.65C847.141 389.217 845.508 379.417 842.241 371.25C838.975 363.083 834.075 356.9 827.541 352.7C821.241 348.267 813.308 346.05 803.741 346.05C793.941 346.05 785.658 348.267 778.891 352.7C772.125 357.133 766.991 363.667 763.491 372.3C759.991 380.7 758.241 391.083 758.241 403.45C758.241 414.883 759.875 424.917 763.141 433.55C766.408 441.95 771.541 448.483 778.541 453.15C785.541 457.817 794.641 460.15 805.841 460.15C816.108 460.15 824.508 458.167 831.041 454.2C837.575 450.233 842.008 445.333 844.341 439.5H895.791C892.991 452.333 887.508 463.767 879.341 473.8C871.175 483.833 860.908 491.65 848.541 497.25C836.175 502.85 821.941 505.65 805.841 505.65ZM309.005 825.3C295.472 825.3 283.105 822.85 271.905 817.95C260.939 813.05 251.372 806.283 243.205 797.65C235.039 788.783 228.739 778.4 224.305 766.5C220.105 754.6 218.005 741.767 218.005 728V719.95C218.005 706.183 219.989 693.35 223.955 681.45C228.155 669.55 234.105 659.167 241.805 650.3C249.739 641.2 259.189 634.2 270.155 629.3C281.122 624.167 293.372 621.6 306.905 621.6C322.305 621.6 335.605 624.983 346.805 631.75C358.005 638.283 366.755 648.083 373.055 661.15C379.355 673.983 382.855 689.85 383.555 708.75L368.855 695.1V563.5H425.205V819H380.755V739.55H388.455C387.755 757.75 383.905 773.267 376.905 786.1C370.139 798.933 360.922 808.733 349.255 815.5C337.589 822.033 324.172 825.3 309.005 825.3ZM323.005 778.4C331.639 778.4 339.455 776.533 346.455 772.8C353.689 768.833 359.405 763.117 363.605 755.65C368.039 748.183 370.255 739.2 370.255 728.7V715.75C370.255 705.483 368.039 696.85 363.605 689.85C359.172 682.85 353.339 677.483 346.105 673.75C338.872 670.017 331.055 668.15 322.655 668.15C313.322 668.15 304.922 670.6 297.455 675.5C290.222 680.167 284.505 686.7 280.305 695.1C276.105 703.267 274.005 712.833 274.005 723.8C274.005 735 276.105 744.683 280.305 752.85C284.505 761.017 290.339 767.317 297.805 771.75C305.272 776.183 313.672 778.4 323.005 778.4ZM563.849 825.65C547.516 825.65 533.049 822.85 520.449 817.25C508.083 811.65 497.699 804.183 489.299 794.85C481.133 785.283 474.833 774.667 470.399 763C466.199 751.1 464.099 738.967 464.099 726.6V719.6C464.099 706.767 466.199 694.517 470.399 682.85C474.833 670.95 481.133 660.333 489.299 651C497.466 641.667 507.616 634.317 519.749 628.95C532.116 623.35 546.116 620.55 561.749 620.55C582.283 620.55 599.549 625.217 613.549 634.55C627.783 643.65 638.633 655.667 646.099 670.6C653.566 685.3 657.299 701.4 657.299 718.9V737.8H487.549V705.95H623.349L605.149 720.65C605.149 709.217 603.516 699.417 600.249 691.25C596.983 683.083 592.083 676.9 585.549 672.7C579.249 668.267 571.316 666.05 561.749 666.05C551.949 666.05 543.666 668.267 536.899 672.7C530.133 677.133 524.999 683.667 521.499 692.3C517.999 700.7 516.249 711.083 516.249 723.45C516.249 734.883 517.883 744.917 521.149 753.55C524.416 761.95 529.549 768.483 536.549 773.15C543.549 777.817 552.649 780.15 563.849 780.15C574.116 780.15 582.516 778.167 589.049 774.2C595.583 770.233 600.016 765.333 602.349 759.5H653.799C650.999 772.333 645.516 783.767 637.349 793.8C629.183 803.833 618.916 811.65 606.549 817.25C594.183 822.85 579.949 825.65 563.849 825.65ZM729.457 819L672.057 627.2H729.807L783.707 819H729.457ZM746.957 819V772.45H803.307V819H746.957ZM767.607 819L814.157 627.2H868.057L818.357 819H767.607Z" fill="white"/>
</svg>
